{"title":"The Devils Chair 2007 DVDRip Xvid AC3 LKRG","uid":10371059,"size":914827045,"categoryP":"video","categoryS":"movies","magnet":"?xt=urn:btih:9671476a6bbd2f353aac7b9b8316e6f4cc8c38b5&amp;dn=The+Devils+Chair+2007+DVDRip+Xvid+AC3+LKRG&amp;tr=udp%3A%2F%2Ftracker.openbittorrent.com%3A80&amp;tr=udp%3A%2F%2Fopen.demonii.com%3A1337&amp;tr=udp%3A%2F%2Ftracker.coppersurfer.tk%3A6969&amp;tr=udp%3A%2F%2Fexodus.desync.com%3A6969","seeders":5,"leechers":1,"uploader":".BONE.","files":2,"time":1402934846,"description":"Runtime ..........: 1h 30mn\nFile Size ........: 872 MiB\nResolution .......: 720 x 464 &lt;a href=&quot;\nhttp://www.imdb.com/title/tt0837791/&quot; rel=&quot;nofollow&quot; target=&quot;_NEW&quot;&gt;\nhttp://www.imdb.com/title/tt0837791/&lt;/a&gt;\nGenre ............: Horror\nLanguage .........: English\nSubtitles ........: None\nComplete name : The Devils Chair 2007 DVDRip Xvid AC3 LKRGTheDC_LKRG.avi\nFormat : AVI\nFormat/Info : Audio Video Interleave\nFile size : 872 MiB\nDuration : 1h 30mn\nOverall bit rate : 1 345 Kbps\nWriting application : VirtualDubMod 1.5.10.2 (build 2540/release)\nWriting library : VirtualDubMod build 2540/release\nVideo\nID : 0\nFormat : MPEG-4 Visual\nFormat profile : Advanced Simple@L5\nFormat settings, BVOP : 2\nFormat settings, QPel : No\nFormat settings, GMC : No warppoints\nFormat settings, Matrix : Default (H.263)\nMuxing mode : Packed bitstream\nCodec ID : XVID\nCodec ID/Hint : XviD\nDuration : 1h 30mn\nBit rate : 887 Kbps\nWidth : 720 pixels\nHeight : 464 pixels\nDisplay aspect ratio : 1.881\nFrame rate : 23.976 fps\nColor space : YUV\nChroma subsampling : 4:2:0\nBit depth : 8 bits\nScan type : Progressive\nCompression mode : Lossy\nBits/(Pixel*Frame) : 0.111\nStream size : 576 MiB (66%)\nWriting library : XviD 1.2.1 (UTC 2008-12-04)\nAudio\nID : 1\nFormat : AC-3\nFormat/Info : Audio Coding 3\nMode extension : CM (complete main)\nFormat settings, Endianness : Big\nCodec ID : 2000\nDuration : 1h 30mn\nBit rate mode : Constant\nBit rate : 448 Kbps\nChannel(s) : 6 channels\nChannel positions : Front: L C R, Side: L R, LFE\nSampling rate : 48.0 KHz\nBit depth : 16 bits\nCompression mode : Lossy\nStream size : 291 MiB (33%)\nAlignment : Split accross interleaves\nInterleave, duration : 42 ms (1.00 video frame)\nInterleave, preload duration : 500 ms","torrent":{"xt":"urn:btih:9671476a6bbd2f353aac7b9b8316e6f4cc8c38b5","amp;dn":"The+Devils+Chair+2007+DVDRip+Xvid+AC3+LKRG","amp;tr":["udp%3A%2F%2Ftracker.openbittorrent.com%3A80","udp%3A%2F%2Fopen.demonii.com%3A1337","udp%3A%2F%2Ftracker.coppersurfer.tk%3A6969","udp%3A%2F%2Fexodus.desync.com%3A6969"],"infoHash":"9671476a6bbd2f353aac7b9b8316e6f4cc8c38b5","infoHashBuffer":{"type":"Buffer","data":[150,113,71,106,107,189,47,53,58,172,123,155,131,22,230,244,204,140,56,181]},"announce":[],"urlList":[]}}